<?xml version="1.0" encoding="UTF-8"?>
<svg id="Layer_2" data-name="Layer 2" xmlns="http://www.w3.org/2000/svg" viewBox="0 0 64.77 91.08">
  <defs>
    <style>
      .cls-1 {
        fill: #000;
      }
    </style>
  </defs>
  <g id="Layer_1-2" data-name="Layer 1">
    <path class="cls-1" d="M11.82,14.19c-4.28.86-6.46,5.95-11.82,4.32.73-.96,1.09-1.65,1.63-2.11C7.67,11.37,13.71,6.33,19.84,1.42c1-.8,2.69-1.67,3.7-1.36,1.86.58,1.52,2.46,1.14,4.12-1.2,5.13-2.33,10.28-3.5,15.46q-2.87-1.35-2.18-10.24c-11.34,11.82-9.53,29.71,4.05,38.19.77-1.39,1.49-2.8,2.3-4.16,2.39-3.99,5.64-6.92,10.18-8.32,3.34-1.03,6.43-.68,8.88,1.9,2.52,2.66,2.28,5.82,1.04,9.01-2.68,6.9-8.78,10.26-16.13,8.89-.91-.17-1.84-.2-3.08-.32-.72,9.35,1.1,17.86,6.7,25.14,8.63,11.23,20.59,8.57,28.54,2.62.98-.74,1.83-1.65,3.3-3-.31,3.12-1.91,4.67-3.48,6.16-6.16,5.89-16.62,7.3-24.19,3.32-4.84-2.55-8.46-6.32-10.86-11.22-3.52-7.21-5.19-14.79-4.33-22.84.08-.79.12-1.59.19-2.64-6-4.33-11.29-9.3-13.36-16.87-2.03-7.39.86-14.09,3.06-21.06ZM27.09,49.9c6.94,3.18,13.16.94,15.09-5.32.46-1.48.28-3.61-.5-4.9-1.11-1.83-3.26-1.57-5.19-.82-5,1.95-7.76,5.76-9.41,11.04Z"/>
  </g>
</svg>