<?xml version="1.0" encoding="UTF-8"?>
<svg id="Layer_2" data-name="Layer 2" xmlns="http://www.w3.org/2000/svg" viewBox="0 0 57.68 69.89">
  <g id="Elements">
    <path d="M0,1.26C2.95-.64,5.84-.08,8.43.9c3.57,1.34,7.14,2.96,10.31,5.05,14.55,9.59,23.17,23.29,26.83,40.17.94,4.34,1.2,8.83,1.83,13.66,4.02-2.3,6.05-6.76,10.13-9.42.52,1.99-.46,3.28-1.32,4.43-3.34,4.52-6.72,9.01-10.22,13.39-1.7,2.13-3.02,2.25-4.84.47-3.75-3.69-6.14-8.16-6.8-13.45-.03-.23.33-.51.7-1.02,4.29,1.12,3.27,6.6,7.02,8.63,1.57-6.93.39-13.46-1.43-19.92-1.88-6.67-4.37-13.09-8.4-18.81-3.92-5.57-8.83-10.15-14.17-14.33C12.72,5.56,6.69,2.88,0,1.26Z"/>
  </g>
</svg>