<?xml version="1.0" encoding="UTF-8"?>
<svg id="Layer_2" data-name="Layer 2" xmlns="http://www.w3.org/2000/svg" viewBox="0 0 71.37 75.32">
  <g id="Elements">
    <path d="M71.37,68.19c-5.65,4.18-12.28,5.93-19.11,6.8-8.26,1.05-16.23-.42-24.03-3.39-7.7-2.94-12.85-8.17-15.75-15.81-4.52-11.93-5.16-24.03-1.84-36.35.54-2.01,1.01-4.03,1.49-6.05.03-.13-.11-.3-.32-.83-3.7,2.61-7.34,5.18-10.99,7.75-.27-.22-.55-.44-.82-.66.11-.8-.08-1.93.38-2.36C6.37,11.72,12.4,6.19,18.55.81c1.66-1.45,3.16-.9,4.23,1.18.58,1.13.76,2.46,1.32,3.6,1.06,2.13,2.31,4.17,3.43,6.27,1.02,1.92,1.98,3.87,3.1,6.05-3.34.07-4.14-.55-10.09-7.35-.51,1.07-1.03,1.95-1.35,2.89-3.73,10.74-5.81,21.63-3.43,33.04,3.11,14.92,7.48,20.23,24.46,24.55,9.53,2.43,18.76.56,27.82-2.62,1-.35,1.98-.78,2.97-1.18l.37.95Z"/>
  </g>
</svg>